Coordinates
version=1
nRows=19
nColumns=24
inDegrees=yes

Units are S.I. units (second, meters, Newtons, ...)
Angles are in degrees.

endheader
time	pelvis_tilt	pelvis_list	pelvis_rotation	pelvis_tx	pelvis_ty	pelvis_tz	hip_flexion_r	hip_adduction_r	hip_rotation_r	knee_angle_r	ankle_angle_r	subtalar_angle_r	mtp_angle_r	hip_flexion_l	hip_adduction_l	hip_rotation_l	knee_angle_l	ankle_angle_l	subtalar_angle_l	mtp_angle_l	lumbar_extension	lumbar_bending	lumbar_rotation
      4.76000000	      7.86557992	      2.08146574	      5.00094111	      1.03609691	      0.87466968	     -0.12727141	    -32.82464706	      2.12806683	     -6.91396692	    -14.83546252	     13.54500008	      9.09729323	      0.00000000	     20.37026996	      7.83105409	      3.05605857	    -16.40577809	      8.55490323	     -5.44057545	      0.00000000	    -30.23186479	     -1.83116390	     -2.50717712
      4.77000000	      7.83970007	      2.32321887	      5.19662448	      1.05460179	      0.87317753	     -0.12858408	    -31.67640860	      1.56025397	     -8.17101032	    -18.43616689	     10.65849014	      9.63767106	      0.00000000	     21.41111103	      8.17698029	      2.05959119	    -20.00792052	      8.78764489	     -4.67065858	      0.00000000	    -30.13510599	     -2.16676026	     -3.17224448
      4.78000000	      7.92760131	      2.55764339	      5.27186887	      1.07288400	      0.87210695	     -0.12976862	    -30.34614958	      0.87437202	     -9.11508844	    -22.35796963	      7.22971882	      9.85761401	      0.00000000	     22.20975948	      8.46466134	      1.34658206	    -23.48091483	      9.48024614	     -4.18192568	      0.00000000	    -30.19271017	     -2.50014343	     -3.72706258
      4.79000000	      8.16233659	      2.81353549	      5.16229966	      1.09088588	      0.87152428	     -0.13076023	    -28.87094614	      0.02590615	     -9.74359289	    -26.56316947	      3.50260571	      9.73709932	      0.00000000	     22.66840545	      8.69727116	      0.70862802	    -26.70547696	     10.72563871	     -3.67805319	      0.00000000	    -30.43465045	     -2.87770438	     -4.08925947
      4.80000000	      8.47067774	      3.09033434	      4.85244846	      1.10855274	      0.87138531	     -0.13160659	    -27.18785150	     -0.98117911	    -10.02666608	    -31.00549866	     -0.18595401	      9.48697686	      0.00000000	     22.77138927	      8.90252639	      0.13206761	    -29.49877917	     12.31680235	     -3.28793955	      0.00000000	    -30.76734502	     -3.29896350	     -4.25141656
      4.81000000	      8.75795640	      3.41067474	      4.31598550	      1.12589974	      0.87162590	     -0.13229672	    -25.23378600	     -2.15447502	     -9.93809144	    -35.59857968	     -3.40955692	      9.24482053	      0.00000000	     22.55140693	      9.11154811	     -0.46242792	    -31.72752808	     14.12465467	     -3.00432282	      0.00000000	    -31.05335331	     -3.81057615	     -4.27233523
      4.82000000	      8.96874369	      3.78321568	      3.54651612	      1.14290735	      0.87224110	     -0.13280267	    -22.98847238	     -3.46107055	     -9.46556974	    -40.23686237	     -5.79907916	      9.09880469	      0.00000000	     22.04028080	      9.33063169	     -1.15793960	    -33.31320073	     15.97489796	     -2.78685534	      0.00000000	    -31.21854632	     -4.43705744	     -4.15609001
      4.83000000	      9.07135385	      4.20301791	      2.56261871	      1.15959031	      0.87325657	     -0.13310393	    -20.46457757	     -4.82867148	     -8.61122814	    -44.78725220	     -7.12331405	      9.08417971	      0.00000000	     21.27469658	      9.56636992	     -1.97132283	    -34.23047256	     17.72954684	     -2.63727751	      0.00000000	    -31.21351910	     -5.17769289	     -3.93528743
      4.84000000	      9.06878713	      4.63780141	      1.41513392	      1.17597302	      0.87472964	     -0.13321130	    -17.71196393	     -6.14634851	     -7.41952745	    -49.10983560	     -7.33196858	      9.20560502	      0.00000000	     20.28705343	      9.80759798	     -2.87236072	    -34.51665285	     19.29282111	     -2.53241486	      0.00000000	    -31.03224253	     -5.98276442	     -3.64817106
      4.85000000	      8.98118374	      5.03951326	      0.18280707	      1.19207418	      0.87669970	     -0.13317082	    -14.79737214	     -7.30366571	     -6.00693006	    -53.08868689	     -6.54099304	      9.44021944	      0.00000000	     19.11644555	     10.03262922	     -3.80804141	    -34.26510625	     20.61635225	     -2.48398132	      0.00000000	    -30.69690743	     -6.77005497	     -3.32277431
      4.86000000	      8.82020358	      5.35339547	     -1.04083599	      1.20793085	      0.87919167	     -0.13308094	    -11.79158852	     -8.18520393	     -4.47397289	    -56.62504357	     -4.96119310	      9.73904792	      0.00000000	     17.79682085	     10.23009892	     -4.64536009	    -33.56293344	     21.66632911	     -2.48499460	      0.00000000	    -30.22797442	     -7.43833312	     -3.00914049
      4.87000000	      8.60539423	      5.53256068	     -2.15836536	      1.22354256	      0.88218166	     -0.13304641	     -8.77312390	     -8.72901179	     -2.98653210	    -59.66203617	     -2.89430054	     10.03655487	      0.00000000	     16.37132201	     10.37203300	     -5.31059055	    -32.53730818	     22.42834919	     -2.57208677	      0.00000000	    -29.68098356	     -7.89667921	     -2.76446364
      4.88000000	      8.33758256	      5.55136626	     -3.08874123	      1.23893237	      0.88560706	     -0.13317392	     -5.80106450	     -8.91224424	     -1.67228421	    -62.17234043	     -0.62851673	     10.25142772	      0.00000000	     14.87491121	     10.44843505	     -5.70850292	    -31.27496394	     22.91670634	     -2.75937264	      0.00000000	    -29.08250821	     -8.08290145	     -2.63177030
      4.89000000	      8.04393681	      5.41009378	     -3.80753505	      1.25408112	      0.88940225	     -0.13349634	     -2.93640722	     -8.76448278	     -0.60098999	    -64.16399461	      1.57957097	     10.32753681	      0.00000000	     13.31118545	     10.44747203	     -5.82858457	    -29.84522512	     23.16743694	     -3.06241764	      0.00000000	    -28.50562350	     -7.99615307	     -2.64421751
      4.90000000	      7.64020596	      5.12789047	     -4.22701699	      1.26907833	      0.89336043	     -0.13414829	     -0.14376795	     -8.34795596	      0.09338651	    -65.63773804	      3.64768703	     10.19391879	      0.00000000	     11.77608458	     10.38985154	     -5.56362254	    -28.27937264	     23.16743188	     -3.49350295	      0.00000000	    -27.84693794	     -7.62091072	     -2.81860007
      4.91000000	      7.22284292	      4.73136790	     -4.41062306	      1.28387005	      0.89747765	     -0.13503542	      2.48810029	     -7.73286785	      0.46836159	    -66.63219872	      5.44404440	      9.84583137	      0.00000000	     10.18886462	     10.26416347	     -5.00807721	    -26.60415736	     22.96628135	     -4.05337097	      0.00000000	    -27.25647959	     -7.03125869	     -3.15445187
      4.92000000	      6.80381597	      4.19013265	     -4.36476939	      1.29848409	      0.90167248	     -0.13614560	      4.92974728	     -6.92064496	      0.52350879	    -67.15206121	      6.95607807	      9.33806777	      0.00000000	      8.55571816	     10.00422601	     -4.21335857	    -24.86454458	     22.64626833	     -4.63916433	      0.00000000	    -26.74692295	     -6.19502210	     -3.60781350
      4.93000000	      6.37691979	      3.73472434	     -4.16901172	      1.31300525	      0.90577309	     -0.13739410	      7.24763707	     -6.22614452	      0.31874841	    -67.28619134	      8.24162002	      8.62078052	      0.00000000	      6.86059685	      9.85418015	     -3.18251737	    -22.95103722	     21.98121385	     -5.56706362	      0.00000000	    -26.26401683	     -5.42432868	     -4.22716835
      4.94000000	      5.99608149	      3.19615204	     -3.83211976	      1.32737514	      0.90980384	     -0.13871270	      9.35717001	     -5.45713176	     -0.10715727	    -67.00883611	      9.31229520	      7.86226321	      0.00000000	      5.11322150	      9.57621834	     -2.08197897	    -21.02298958	     21.26001428	     -6.45320903	      0.00000000	    -25.90360535	     -4.53369709	     -4.90502043
